# MagicaVoxel @ Ephtracy

# group
o 

# material
mtllib Building1.mtl
usemtl palette

# normals
vn -1 0 0
vn 1 0 0
vn 0 0 1
vn 0 0 -1
vn 0 -1 0
vn 0 1 0

# texcoords
vt 0.958984 0.5
vt 0.970703 0.5
vt 0.974609 0.5
vt 0.982422 0.5
vt 0.986328 0.5
vt 0.990234 0.5
vt 0.994141 0.5

# verts
v -0.5 0 0.4
v -0.5 0 -0.4
v -0.5 0.1 0.3
v -0.5 0.1 0.1
v -0.5 0.1 -0.1
v -0.5 0.1 -0.3
v -0.5 0.3 0.3
v -0.5 0.3 0.1
v -0.5 0.3 -0.1
v -0.5 0.3 -0.3
v -0.5 0.4 0.3
v -0.5 0.4 0.1
v -0.5 0.4 -0.1
v -0.5 0.4 -0.3
v -0.5 0.5 0.3
v -0.5 0.5 0.1
v -0.5 0.5 -0.1
v -0.5 0.5 -0.3
v -0.5 0.6 0.3
v -0.5 0.6 0.1
v -0.5 0.6 -0.1
v -0.5 0.6 -0.3
v -0.5 0.7 0.3
v -0.5 0.7 0.1
v -0.5 0.7 -0.1
v -0.5 0.7 -0.3
v -0.5 0.9 0.4
v -0.5 0.9 0.3
v -0.5 0.9 0.1
v -0.5 0.9 -0.1
v -0.5 0.9 -0.3
v -0.5 0.9 -0.4
v -0.5 1 0.3
v -0.5 1 -0.3
v -0.4 0.9 0.4
v -0.4 0.9 0.3
v -0.4 0.9 -0.3
v -0.4 0.9 -0.4
v -0.4 1 0.4
v -0.4 1 0.3
v -0.4 1 -0.3
v -0.4 1 -0.4
v 0.4 0.9 0.3
v 0.4 0.9 -0.3
v 0.4 1 0.3
v 0.4 1 -0.3
v -0.4 0.9 0.3
v -0.4 0.9 -0.3
v -0.4 1 0.3
v -0.4 1 -0.3
v 0.4 0.9 0.4
v 0.4 0.9 0.3
v 0.4 0.9 -0.3
v 0.4 0.9 -0.4
v 0.4 1 0.4
v 0.4 1 0.3
v 0.4 1 -0.3
v 0.4 1 -0.4
v 0.5 0 0.4
v 0.5 0 -0.4
v 0.5 0.1 0.3
v 0.5 0.1 0.1
v 0.5 0.1 -0.1
v 0.5 0.1 -0.3
v 0.5 0.3 0.3
v 0.5 0.3 0.1
v 0.5 0.3 -0.1
v 0.5 0.3 -0.3
v 0.5 0.4 0.3
v 0.5 0.4 0.1
v 0.5 0.4 -0.1
v 0.5 0.4 -0.3
v 0.5 0.6 0.3
v 0.5 0.6 0.1
v 0.5 0.6 -0.1
v 0.5 0.6 -0.3
v 0.5 0.7 0.3
v 0.5 0.7 0.1
v 0.5 0.7 -0.1
v 0.5 0.7 -0.3
v 0.5 0.9 0.4
v 0.5 0.9 0.3
v 0.5 0.9 0.1
v 0.5 0.9 -0.1
v 0.5 0.9 -0.3
v 0.5 0.9 -0.4
v 0.5 1 0.3
v 0.5 1 -0.3
v -0.5 0 0.4
v -0.5 0.9 0.4
v -0.4 0.1 0.4
v -0.4 0.3 0.4
v -0.4 0.4 0.4
v -0.4 0.5 0.4
v -0.4 0.6 0.4
v -0.4 0.7 0.4
v -0.4 0.9 0.4
v -0.4 1 0.4
v -0.2 0.1 0.4
v -0.2 0.3 0.4
v -0.2 0.4 0.4
v -0.2 0.5 0.4
v -0.2 0.6 0.4
v -0.2 0.7 0.4
v -0.2 0.9 0.4
v -0.1 0.1 0.4
v -0.1 0.4 0.4
v -0.1 0.5 0.4
v -0.1 0.6 0.4
v -0.1 0.7 0.4
v -0.1 0.9 0.4
v 0.1 0.1 0.4
v 0.1 0.4 0.4
v 0.1 0.5 0.4
v 0.1 0.6 0.4
v 0.1 0.7 0.4
v 0.1 0.9 0.4
v 0.2 0.1 0.4
v 0.2 0.3 0.4
v 0.2 0.4 0.4
v 0.2 0.6 0.4
v 0.2 0.7 0.4
v 0.2 0.9 0.4
v 0.4 0.1 0.4
v 0.4 0.3 0.4
v 0.4 0.4 0.4
v 0.4 0.6 0.4
v 0.4 0.7 0.4
v 0.4 0.9 0.4
v 0.4 1 0.4
v 0.5 0 0.4
v 0.5 0.9 0.4
v -0.5 0.9 0.3
v -0.5 1 0.3
v -0.4 0.9 0.3
v -0.4 1 0.3
v 0.4 0.9 0.3
v 0.4 1 0.3
v 0.5 0.9 0.3
v 0.5 1 0.3
v -0.4 0.9 -0.3
v -0.4 1 -0.3
v 0.4 0.9 -0.3
v 0.4 1 -0.3
v -0.4 0.9 0.3
v -0.4 1 0.3
v 0.4 0.9 0.3
v 0.4 1 0.3
v -0.5 0.9 -0.3
v -0.5 1 -0.3
v -0.4 0.9 -0.3
v -0.4 1 -0.3
v 0.4 0.9 -0.3
v 0.4 1 -0.3
v 0.5 0.9 -0.3
v 0.5 1 -0.3
v -0.5 0 -0.4
v -0.5 0.9 -0.4
v -0.4 0.1 -0.4
v -0.4 0.3 -0.4
v -0.4 0.4 -0.4
v -0.4 0.6 -0.4
v -0.4 0.7 -0.4
v -0.4 0.9 -0.4
v -0.4 1 -0.4
v -0.2 0.1 -0.4
v -0.2 0.3 -0.4
v -0.2 0.4 -0.4
v -0.2 0.6 -0.4
v -0.2 0.7 -0.4
v -0.2 0.9 -0.4
v -0.1 0.1 -0.4
v -0.1 0.3 -0.4
v -0.1 0.4 -0.4
v -0.1 0.5 -0.4
v -0.1 0.6 -0.4
v -0.1 0.7 -0.4
v -0.1 0.9 -0.4
v 0.1 0.1 -0.4
v 0.1 0.3 -0.4
v 0.1 0.4 -0.4
v 0.1 0.5 -0.4
v 0.1 0.6 -0.4
v 0.1 0.7 -0.4
v 0.1 0.9 -0.4
v 0.2 0.1 -0.4
v 0.2 0.3 -0.4
v 0.2 0.4 -0.4
v 0.2 0.6 -0.4
v 0.2 0.7 -0.4
v 0.2 0.9 -0.4
v 0.4 0.1 -0.4
v 0.4 0.3 -0.4
v 0.4 0.4 -0.4
v 0.4 0.6 -0.4
v 0.4 0.7 -0.4
v 0.4 0.9 -0.4
v 0.4 1 -0.4
v 0.5 0 -0.4
v 0.5 0.9 -0.4
v -0.5 0 0.4
v 0.5 0 0.4
v -0.4 0 0.3
v 0.4 0 0.3
v -0.4 0 -0.3
v 0.4 0 -0.3
v -0.5 0 -0.4
v 0.5 0 -0.4
v -0.5 0.9 0.4
v -0.4 0.9 0.4
v 0.4 0.9 0.4
v 0.5 0.9 0.4
v -0.5 0.9 0.3
v -0.4 0.9 0.3
v 0.4 0.9 0.3
v 0.5 0.9 0.3
v -0.5 0.9 -0.3
v -0.4 0.9 -0.3
v 0.4 0.9 -0.3
v 0.5 0.9 -0.3
v -0.5 0.9 -0.4
v -0.4 0.9 -0.4
v 0.4 0.9 -0.4
v 0.5 0.9 -0.4
v -0.4 1 0.4
v 0.4 1 0.4
v -0.5 1 0.3
v -0.4 1 0.3
v 0.4 1 0.3
v 0.5 1 0.3
v -0.5 1 -0.3
v -0.4 1 -0.3
v 0.4 1 -0.3
v 0.5 1 -0.3
v -0.4 1 -0.4
v 0.4 1 -0.4

# faces
f 3/1/1 2/1/1 1/1/1
f 4/1/1 2/1/1 3/1/1
f 5/1/1 2/1/1 4/1/1
f 6/1/1 2/1/1 5/1/1
f 7/1/1 3/1/1 1/1/1
f 7/2/1 4/2/1 3/2/1
f 8/1/1 5/1/1 4/1/1
f 8/2/1 4/2/1 7/2/1
f 9/2/1 6/2/1 5/2/1
f 9/1/1 5/1/1 8/1/1
f 10/1/1 2/1/1 6/1/1
f 10/2/1 6/2/1 9/2/1
f 11/1/1 9/1/1 8/1/1
f 11/1/1 8/1/1 7/1/1
f 11/1/1 10/1/1 9/1/1
f 11/1/1 7/1/1 1/1/1
f 12/1/1 10/1/1 11/1/1
f 13/1/1 10/1/1 12/1/1
f 14/1/1 2/1/1 10/1/1
f 14/1/1 10/1/1 13/1/1
f 15/1/1 11/1/1 1/1/1
f 15/4/1 12/4/1 11/4/1
f 16/1/1 13/1/1 12/1/1
f 16/4/1 12/4/1 15/4/1
f 17/4/1 14/4/1 13/4/1
f 17/1/1 13/1/1 16/1/1
f 18/1/1 2/1/1 14/1/1
f 18/4/1 14/4/1 17/4/1
f 19/1/1 15/1/1 1/1/1
f 19/1/1 17/1/1 16/1/1
f 19/1/1 18/1/1 17/1/1
f 19/1/1 16/1/1 15/1/1
f 20/1/1 18/1/1 19/1/1
f 21/1/1 18/1/1 20/1/1
f 22/1/1 2/1/1 18/1/1
f 22/1/1 18/1/1 21/1/1
f 23/1/1 19/1/1 1/1/1
f 23/6/1 20/6/1 19/6/1
f 24/1/1 21/1/1 20/1/1
f 24/6/1 20/6/1 23/6/1
f 25/6/1 22/6/1 21/6/1
f 25/1/1 21/1/1 24/1/1
f 26/1/1 2/1/1 22/1/1
f 26/6/1 22/6/1 25/6/1
f 27/1/1 23/1/1 1/1/1
f 28/3/1 24/3/1 23/3/1
f 28/1/1 23/1/1 27/1/1
f 29/1/1 25/1/1 24/1/1
f 29/3/1 24/3/1 28/3/1
f 30/3/1 26/3/1 25/3/1
f 30/1/1 25/1/1 29/1/1
f 31/1/1 2/1/1 26/1/1
f 31/3/1 26/3/1 30/3/1
f 32/1/1 2/1/1 31/1/1
f 33/1/1 30/1/1 29/1/1
f 33/1/1 31/1/1 30/1/1
f 33/1/1 29/1/1 28/1/1
f 34/1/1 31/1/1 33/1/1
f 39/1/1 36/1/1 35/1/1
f 40/1/1 36/1/1 39/1/1
f 41/1/1 38/1/1 37/1/1
f 42/1/1 38/1/1 41/1/1
f 45/1/1 44/1/1 43/1/1
f 46/1/1 44/1/1 45/1/1
f 47/1/2 48/1/2 49/1/2
f 49/1/2 48/1/2 50/1/2
f 51/1/2 52/1/2 55/1/2
f 55/1/2 52/1/2 56/1/2
f 53/1/2 54/1/2 57/1/2
f 57/1/2 54/1/2 58/1/2
f 59/1/2 60/1/2 61/1/2
f 61/1/2 60/1/2 62/1/2
f 62/1/2 60/1/2 63/1/2
f 63/1/2 60/1/2 64/1/2
f 59/1/2 61/1/2 65/1/2
f 61/2/2 62/2/2 65/2/2
f 62/1/2 63/1/2 66/1/2
f 65/2/2 62/2/2 66/2/2
f 63/2/2 64/2/2 67/2/2
f 66/1/2 63/1/2 67/1/2
f 64/1/2 60/1/2 68/1/2
f 67/2/2 64/2/2 68/2/2
f 66/1/2 67/1/2 69/1/2
f 65/1/2 66/1/2 69/1/2
f 67/1/2 68/1/2 69/1/2
f 59/1/2 65/1/2 69/1/2
f 69/1/2 68/1/2 70/1/2
f 70/1/2 68/1/2 71/1/2
f 68/1/2 60/1/2 72/1/2
f 71/1/2 68/1/2 72/1/2
f 59/1/2 69/1/2 73/1/2
f 69/2/2 70/2/2 73/2/2
f 70/1/2 71/1/2 74/1/2
f 73/2/2 70/2/2 74/2/2
f 71/2/2 72/2/2 75/2/2
f 74/1/2 71/1/2 75/1/2
f 72/1/2 60/1/2 76/1/2
f 75/2/2 72/2/2 76/2/2
f 59/1/2 73/1/2 77/1/2
f 74/1/2 75/1/2 77/1/2
f 75/1/2 76/1/2 77/1/2
f 73/1/2 74/1/2 77/1/2
f 77/1/2 76/1/2 78/1/2
f 78/1/2 76/1/2 79/1/2
f 76/1/2 60/1/2 80/1/2
f 79/1/2 76/1/2 80/1/2
f 59/1/2 77/1/2 81/1/2
f 77/2/2 78/2/2 82/2/2
f 81/1/2 77/1/2 82/1/2
f 78/1/2 79/1/2 83/1/2
f 82/2/2 78/2/2 83/2/2
f 79/2/2 80/2/2 84/2/2
f 83/1/2 79/1/2 84/1/2
f 80/1/2 60/1/2 85/1/2
f 84/2/2 80/2/2 85/2/2
f 85/1/2 60/1/2 86/1/2
f 83/1/2 84/1/2 87/1/2
f 84/1/2 85/1/2 87/1/2
f 82/1/2 83/1/2 87/1/2
f 87/1/2 85/1/2 88/1/2
f 91/1/3 90/1/3 89/1/3
f 92/1/3 90/1/3 91/1/3
f 93/1/3 90/1/3 92/1/3
f 94/1/3 90/1/3 93/1/3
f 95/1/3 90/1/3 94/1/3
f 96/1/3 90/1/3 95/1/3
f 97/1/3 90/1/3 96/1/3
f 99/1/3 91/1/3 89/1/3
f 99/7/3 92/7/3 91/7/3
f 100/1/3 93/1/3 92/1/3
f 100/7/3 92/7/3 99/7/3
f 101/5/3 94/5/3 93/5/3
f 101/1/3 93/1/3 100/1/3
f 102/1/3 95/1/3 94/1/3
f 102/5/3 94/5/3 101/5/3
f 103/7/3 96/7/3 95/7/3
f 103/1/3 95/1/3 102/1/3
f 104/4/3 97/4/3 96/4/3
f 104/7/3 96/7/3 103/7/3
f 105/1/3 98/1/3 97/1/3
f 105/4/3 97/4/3 104/4/3
f 106/1/3 104/1/3 103/1/3
f 106/1/3 103/1/3 102/1/3
f 106/1/3 105/1/3 104/1/3
f 106/1/3 102/1/3 101/1/3
f 106/1/3 101/1/3 100/1/3
f 106/1/3 100/1/3 99/1/3
f 106/1/3 99/1/3 89/1/3
f 107/1/3 105/1/3 106/1/3
f 108/1/3 105/1/3 107/1/3
f 109/1/3 105/1/3 108/1/3
f 110/1/3 105/1/3 109/1/3
f 111/1/3 98/1/3 105/1/3
f 111/1/3 105/1/3 110/1/3
f 112/1/3 106/1/3 89/1/3
f 112/7/3 107/7/3 106/7/3
f 113/1/3 108/1/3 107/1/3
f 113/7/3 107/7/3 112/7/3
f 114/4/3 109/4/3 108/4/3
f 114/1/3 108/1/3 113/1/3
f 115/1/3 110/1/3 109/1/3
f 115/4/3 109/4/3 114/4/3
f 116/4/3 111/4/3 110/4/3
f 116/1/3 110/1/3 115/1/3
f 117/1/3 98/1/3 111/1/3
f 117/4/3 111/4/3 116/4/3
f 118/1/3 114/1/3 113/1/3
f 118/1/3 116/1/3 115/1/3
f 118/1/3 117/1/3 116/1/3
f 118/1/3 113/1/3 112/1/3
f 118/1/3 112/1/3 89/1/3
f 118/1/3 115/1/3 114/1/3
f 119/1/3 117/1/3 118/1/3
f 120/1/3 117/1/3 119/1/3
f 121/1/3 117/1/3 120/1/3
f 122/1/3 117/1/3 121/1/3
f 123/1/3 98/1/3 117/1/3
f 123/1/3 117/1/3 122/1/3
f 124/1/3 118/1/3 89/1/3
f 124/5/3 119/5/3 118/5/3
f 125/1/3 120/1/3 119/1/3
f 125/5/3 119/5/3 124/5/3
f 126/4/3 121/4/3 120/4/3
f 126/1/3 120/1/3 125/1/3
f 127/1/3 122/1/3 121/1/3
f 127/4/3 121/4/3 126/4/3
f 128/4/3 123/4/3 122/4/3
f 128/1/3 122/1/3 127/1/3
f 129/1/3 98/1/3 123/1/3
f 129/4/3 123/4/3 128/4/3
f 130/1/3 98/1/3 129/1/3
f 131/1/3 126/1/3 125/1/3
f 131/1/3 128/1/3 127/1/3
f 131/1/3 129/1/3 128/1/3
f 131/1/3 125/1/3 124/1/3
f 131/1/3 124/1/3 89/1/3
f 131/1/3 127/1/3 126/1/3
f 132/1/3 129/1/3 131/1/3
f 135/1/3 134/1/3 133/1/3
f 136/1/3 134/1/3 135/1/3
f 139/1/3 138/1/3 137/1/3
f 140/1/3 138/1/3 139/1/3
f 143/1/3 142/1/3 141/1/3
f 144/1/3 142/1/3 143/1/3
f 145/1/4 146/1/4 147/1/4
f 147/1/4 146/1/4 148/1/4
f 149/1/4 150/1/4 151/1/4
f 151/1/4 150/1/4 152/1/4
f 153/1/4 154/1/4 155/1/4
f 155/1/4 154/1/4 156/1/4
f 157/1/4 158/1/4 159/1/4
f 159/1/4 158/1/4 160/1/4
f 160/1/4 158/1/4 161/1/4
f 161/1/4 158/1/4 162/1/4
f 162/1/4 158/1/4 163/1/4
f 163/1/4 158/1/4 164/1/4
f 157/1/4 159/1/4 166/1/4
f 159/2/4 160/2/4 166/2/4
f 160/1/4 161/1/4 167/1/4
f 166/2/4 160/2/4 167/2/4
f 161/2/4 162/2/4 168/2/4
f 167/1/4 161/1/4 168/1/4
f 162/1/4 163/1/4 169/1/4
f 168/2/4 162/2/4 169/2/4
f 163/6/4 164/6/4 170/6/4
f 169/1/4 163/1/4 170/1/4
f 164/1/4 165/1/4 171/1/4
f 170/6/4 164/6/4 171/6/4
f 169/1/4 170/1/4 172/1/4
f 168/1/4 169/1/4 172/1/4
f 170/1/4 171/1/4 172/1/4
f 167/1/4 168/1/4 172/1/4
f 166/1/4 167/1/4 172/1/4
f 157/1/4 166/1/4 172/1/4
f 172/1/4 171/1/4 173/1/4
f 173/1/4 171/1/4 174/1/4
f 174/1/4 171/1/4 175/1/4
f 175/1/4 171/1/4 176/1/4
f 176/1/4 171/1/4 177/1/4
f 171/1/4 165/1/4 178/1/4
f 177/1/4 171/1/4 178/1/4
f 157/1/4 172/1/4 179/1/4
f 172/6/4 173/6/4 179/6/4
f 173/1/4 174/1/4 180/1/4
f 179/6/4 173/6/4 180/6/4
f 174/2/4 175/2/4 181/2/4
f 180/1/4 174/1/4 181/1/4
f 175/1/4 176/1/4 182/1/4
f 181/2/4 175/2/4 182/2/4
f 176/7/4 177/7/4 183/7/4
f 182/1/4 176/1/4 183/1/4
f 177/2/4 178/2/4 184/2/4
f 183/7/4 177/7/4 184/7/4
f 178/1/4 165/1/4 185/1/4
f 184/2/4 178/2/4 185/2/4
f 181/1/4 182/1/4 186/1/4
f 183/1/4 184/1/4 186/1/4
f 184/1/4 185/1/4 186/1/4
f 180/1/4 181/1/4 186/1/4
f 179/1/4 180/1/4 186/1/4
f 157/1/4 179/1/4 186/1/4
f 182/1/4 183/1/4 186/1/4
f 186/1/4 185/1/4 187/1/4
f 187/1/4 185/1/4 188/1/4
f 188/1/4 185/1/4 189/1/4
f 189/1/4 185/1/4 190/1/4
f 185/1/4 165/1/4 191/1/4
f 190/1/4 185/1/4 191/1/4
f 157/1/4 186/1/4 192/1/4
f 186/2/4 187/2/4 192/2/4
f 187/1/4 188/1/4 193/1/4
f 192/2/4 187/2/4 193/2/4
f 188/6/4 189/6/4 194/6/4
f 193/1/4 188/1/4 194/1/4
f 189/1/4 190/1/4 195/1/4
f 194/6/4 189/6/4 195/6/4
f 190/2/4 191/2/4 196/2/4
f 195/1/4 190/1/4 196/1/4
f 191/1/4 165/1/4 197/1/4
f 196/2/4 191/2/4 197/2/4
f 197/1/4 165/1/4 198/1/4
f 193/1/4 194/1/4 199/1/4
f 195/1/4 196/1/4 199/1/4
f 196/1/4 197/1/4 199/1/4
f 192/1/4 193/1/4 199/1/4
f 157/1/4 192/1/4 199/1/4
f 194/1/4 195/1/4 199/1/4
f 199/1/4 197/1/4 200/1/4
f 203/1/5 202/1/5 201/1/5
f 204/1/5 202/1/5 203/1/5
f 205/1/5 203/1/5 201/1/5
f 205/7/5 204/7/5 203/7/5
f 206/1/5 202/1/5 204/1/5
f 206/7/5 204/7/5 205/7/5
f 207/1/5 205/1/5 201/1/5
f 207/1/5 206/1/5 205/1/5
f 208/1/5 202/1/5 206/1/5
f 208/1/5 206/1/5 207/1/5
f 209/1/6 210/1/6 213/1/6
f 213/1/6 210/1/6 214/1/6
f 211/1/6 212/1/6 215/1/6
f 215/1/6 212/1/6 216/1/6
f 214/1/6 215/1/6 218/1/6
f 218/1/6 215/1/6 219/1/6
f 217/1/6 218/1/6 221/1/6
f 221/1/6 218/1/6 222/1/6
f 219/1/6 220/1/6 223/1/6
f 223/1/6 220/1/6 224/1/6
f 225/1/6 226/1/6 228/1/6
f 228/1/6 226/1/6 229/1/6
f 227/1/6 228/1/6 231/1/6
f 231/1/6 228/1/6 232/1/6
f 229/1/6 230/1/6 233/1/6
f 233/1/6 230/1/6 234/1/6
f 232/1/6 233/1/6 235/1/6
f 235/1/6 233/1/6 236/1/6
