# MagicaVoxel @ Ephtracy

# group
o 

# material
mtllib PathCross.mtl
usemtl palette

# normals
vn -1 0 0
vn 1 0 0
vn 0 0 1
vn 0 0 -1
vn 0 -1 0
vn 0 1 0

# texcoords
vt 0.970703 0.5
vt 0.994141 0.5

# verts
v -0.5 0 0.5
v -0.5 0 -0.5
v -0.5 0.1 0.3
v -0.5 0.1 0.2
v -0.5 0.1 -0.2
v -0.5 0.1 -0.3
v -0.5 0.2 0.5
v -0.5 0.2 0.3
v -0.5 0.2 0.2
v -0.5 0.2 -0.2
v -0.5 0.2 -0.3
v -0.5 0.2 -0.5
v 0.5 0 0.5
v 0.5 0 -0.5
v 0.5 0.1 0.3
v 0.5 0.1 0.2
v 0.5 0.1 -0.2
v 0.5 0.1 -0.3
v 0.5 0.2 0.5
v 0.5 0.2 0.3
v 0.5 0.2 0.2
v 0.5 0.2 -0.2
v 0.5 0.2 -0.3
v 0.5 0.2 -0.5
v -0.5 0 0.5
v -0.5 0.2 0.5
v -0.3 0.1 0.5
v -0.3 0.2 0.5
v -0.2 0.1 0.5
v -0.2 0.2 0.5
v 0.2 0.1 0.5
v 0.2 0.2 0.5
v 0.3 0.1 0.5
v 0.3 0.2 0.5
v 0.5 0 0.5
v 0.5 0.2 0.5
v -0.5 0 -0.5
v -0.5 0.2 -0.5
v -0.3 0.1 -0.5
v -0.3 0.2 -0.5
v -0.2 0.1 -0.5
v -0.2 0.2 -0.5
v 0.2 0.1 -0.5
v 0.2 0.2 -0.5
v 0.3 0.1 -0.5
v 0.3 0.2 -0.5
v 0.5 0 -0.5
v 0.5 0.2 -0.5
v -0.5 0 0.5
v 0.5 0 0.5
v -0.5 0 -0.5
v 0.5 0 -0.5
v -0.5 0.2 0.5
v -0.3 0.2 0.5
v -0.2 0.2 0.5
v 0.2 0.2 0.5
v 0.3 0.2 0.5
v 0.5 0.2 0.5
v -0.5 0.2 0.3
v -0.3 0.2 0.3
v 0.3 0.2 0.3
v 0.5 0.2 0.3
v -0.5 0.2 0.2
v -0.2 0.2 0.2
v -0.1 0.2 0.2
v 0.1 0.2 0.2
v 0.2 0.2 0.2
v 0.5 0.2 0.2
v -0.2 0.2 0.1
v -0.1 0.2 0.1
v 0.1 0.2 0.1
v 0.2 0.2 0.1
v -0.2 0.2 -0.1
v -0.1 0.2 -0.1
v 0.1 0.2 -0.1
v 0.2 0.2 -0.1
v -0.5 0.2 -0.2
v -0.2 0.2 -0.2
v -0.1 0.2 -0.2
v 0.1 0.2 -0.2
v 0.2 0.2 -0.2
v 0.5 0.2 -0.2
v -0.5 0.2 -0.3
v -0.3 0.2 -0.3
v 0.3 0.2 -0.3
v 0.5 0.2 -0.3
v -0.5 0.2 -0.5
v -0.3 0.2 -0.5
v -0.2 0.2 -0.5
v 0.2 0.2 -0.5
v 0.3 0.2 -0.5
v 0.5 0.2 -0.5

# faces
f 3/2/1 2/2/1 1/2/1
f 4/2/1 2/2/1 3/2/1
f 5/2/1 2/2/1 4/2/1
f 6/2/1 2/2/1 5/2/1
f 7/2/1 3/2/1 1/2/1
f 8/1/1 4/1/1 3/1/1
f 8/2/1 3/2/1 7/2/1
f 9/2/1 5/2/1 4/2/1
f 9/1/1 4/1/1 8/1/1
f 10/1/1 6/1/1 5/1/1
f 10/2/1 5/2/1 9/2/1
f 11/2/1 2/2/1 6/2/1
f 11/1/1 6/1/1 10/1/1
f 12/2/1 2/2/1 11/2/1
f 13/2/2 14/2/2 15/2/2
f 15/2/2 14/2/2 16/2/2
f 16/2/2 14/2/2 17/2/2
f 17/2/2 14/2/2 18/2/2
f 13/2/2 15/2/2 19/2/2
f 15/1/2 16/1/2 20/1/2
f 19/2/2 15/2/2 20/2/2
f 16/2/2 17/2/2 21/2/2
f 20/1/2 16/1/2 21/1/2
f 17/1/2 18/1/2 22/1/2
f 21/2/2 17/2/2 22/2/2
f 18/2/2 14/2/2 23/2/2
f 22/1/2 18/1/2 23/1/2
f 23/2/2 14/2/2 24/2/2
f 27/2/3 26/2/3 25/2/3
f 28/2/3 26/2/3 27/2/3
f 29/2/3 27/2/3 25/2/3
f 29/1/3 28/1/3 27/1/3
f 30/1/3 28/1/3 29/1/3
f 31/2/3 29/2/3 25/2/3
f 31/2/3 30/2/3 29/2/3
f 32/2/3 30/2/3 31/2/3
f 33/2/3 31/2/3 25/2/3
f 33/1/3 32/1/3 31/1/3
f 34/1/3 32/1/3 33/1/3
f 35/2/3 33/2/3 25/2/3
f 35/2/3 34/2/3 33/2/3
f 36/2/3 34/2/3 35/2/3
f 37/2/4 38/2/4 39/2/4
f 39/2/4 38/2/4 40/2/4
f 37/2/4 39/2/4 41/2/4
f 39/1/4 40/1/4 41/1/4
f 41/1/4 40/1/4 42/1/4
f 37/2/4 41/2/4 43/2/4
f 41/2/4 42/2/4 43/2/4
f 43/2/4 42/2/4 44/2/4
f 37/2/4 43/2/4 45/2/4
f 43/1/4 44/1/4 45/1/4
f 45/1/4 44/1/4 46/1/4
f 37/2/4 45/2/4 47/2/4
f 45/2/4 46/2/4 47/2/4
f 47/2/4 46/2/4 48/2/4
f 51/2/5 50/2/5 49/2/5
f 52/2/5 50/2/5 51/2/5
f 53/2/6 54/2/6 59/2/6
f 54/1/6 55/1/6 60/1/6
f 59/2/6 54/2/6 60/2/6
f 57/2/6 58/2/6 61/2/6
f 56/1/6 57/1/6 61/1/6
f 61/2/6 58/2/6 62/2/6
f 59/1/6 60/1/6 63/1/6
f 60/1/6 55/1/6 64/1/6
f 63/1/6 60/1/6 64/1/6
f 55/2/6 56/2/6 64/2/6
f 64/2/6 56/2/6 65/2/6
f 65/2/6 56/2/6 66/2/6
f 61/1/6 62/1/6 67/1/6
f 66/2/6 56/2/6 67/2/6
f 56/1/6 61/1/6 67/1/6
f 67/1/6 62/1/6 68/1/6
f 64/2/6 65/2/6 69/2/6
f 63/2/6 64/2/6 69/2/6
f 65/1/6 66/1/6 70/1/6
f 69/2/6 65/2/6 70/2/6
f 67/2/6 68/2/6 71/2/6
f 70/1/6 66/1/6 71/1/6
f 66/2/6 67/2/6 71/2/6
f 71/2/6 68/2/6 72/2/6
f 63/2/6 69/2/6 73/2/6
f 69/1/6 70/1/6 73/1/6
f 71/1/6 72/1/6 73/1/6
f 70/1/6 71/1/6 73/1/6
f 73/1/6 72/1/6 74/1/6
f 74/1/6 72/1/6 75/1/6
f 72/2/6 68/2/6 76/2/6
f 75/1/6 72/1/6 76/1/6
f 63/2/6 73/2/6 77/2/6
f 73/2/6 74/2/6 77/2/6
f 77/2/6 74/2/6 78/2/6
f 74/1/6 75/1/6 79/1/6
f 78/2/6 74/2/6 79/2/6
f 75/2/6 76/2/6 80/2/6
f 79/1/6 75/1/6 80/1/6
f 76/2/6 68/2/6 81/2/6
f 80/2/6 76/2/6 81/2/6
f 81/2/6 68/2/6 82/2/6
f 77/1/6 78/1/6 83/1/6
f 83/1/6 78/1/6 84/1/6
f 81/1/6 82/1/6 85/1/6
f 85/1/6 82/1/6 86/1/6
f 83/2/6 84/2/6 87/2/6
f 84/1/6 78/1/6 88/1/6
f 87/2/6 84/2/6 88/2/6
f 79/2/6 80/2/6 89/2/6
f 88/1/6 78/1/6 89/1/6
f 78/2/6 79/2/6 89/2/6
f 80/2/6 81/2/6 89/2/6
f 81/1/6 85/1/6 90/1/6
f 89/2/6 81/2/6 90/2/6
f 85/2/6 86/2/6 91/2/6
f 90/1/6 85/1/6 91/1/6
f 91/2/6 86/2/6 92/2/6
